<?xml version="1.0" standalone="no"?>
<!DOCTYPE svg PUBLIC "-//W3C//DTD SVG 20010904//EN"
 "http://www.w3.org/TR/2001/REC-SVG-20010904/DTD/svg10.dtd">
<svg version="1.0" xmlns="http://www.w3.org/2000/svg"
 width="250.000000pt" height="250.000000pt" viewBox="0 0 250.000000 250.000000"
 preserveAspectRatio="xMidYMid meet">
<metadata>
Created by potrace 1.11, written by Peter Selinger 2001-2013
</metadata>
<g transform="translate(0.000000,250.000000) scale(0.100000,-0.100000)"
fill="#000000" stroke="none">
<path d="M1805 2173 c-78 -10 -188 -38 -269 -69 -88 -34 -91 -35 -200 -28
-117 7 -221 -4 -314 -33 -49 -16 -57 -16 -115 0 -151 40 -369 42 -446 4 -110
-54 -99 -441 22 -729 19 -46 40 -105 46 -132 15 -60 53 -138 95 -189 57 -72
219 -171 313 -191 l31 -7 -14 -46 c-8 -25 -14 -66 -14 -90 0 -35 -3 -43 -19
-43 -14 0 -25 16 -41 60 -27 71 -55 110 -79 110 -10 0 -24 15 -34 35 -25 53
-66 69 -158 62 -96 -8 -176 -41 -215 -91 -16 -20 -36 -36 -44 -36 -22 0 -130
-57 -158 -83 -35 -32 -60 -87 -68 -148 -4 -30 -10 -58 -14 -64 -5 -5 -11 -31
-15 -57 -6 -42 -4 -51 24 -92 18 -25 39 -46 48 -46 12 0 13 -3 4 -14 -7 -8
-11 -32 -9 -52 2 -31 10 -43 37 -61 31 -21 45 -23 175 -23 96 0 154 -5 182
-15 67 -23 292 -38 479 -32 184 6 244 16 288 48 24 18 32 19 64 8 51 -17 264
-7 330 16 l52 18 34 -30 35 -30 163 4 c90 3 202 8 249 11 l85 7 5 62 c3 34 8
65 12 69 4 4 25 10 45 13 37 6 38 8 38 46 0 36 -3 40 -27 43 -24 3 -27 7 -31
60 -5 72 -31 171 -57 222 -30 59 -28 62 38 55 50 -6 61 -4 85 16 24 18 28 27
23 52 -8 40 -33 67 -62 67 -17 0 -24 7 -29 33 -11 50 -32 67 -84 67 -54 0 -87
-15 -114 -52 -20 -27 -20 -29 -4 -63 9 -20 17 -38 17 -40 0 -12 -47 -3 -103
19 -133 53 -205 58 -310 26 -46 -14 -80 -33 -115 -65 l-51 -46 -20 47 c-12 26
-21 49 -21 53 0 3 34 19 74 34 184 69 300 212 326 402 7 44 20 112 31 152 31
118 58 256 71 373 23 211 -21 360 -116 389 -40 12 -113 19 -151 14z m199 -88
c25 -38 46 -132 46 -208 0 -97 -45 -385 -63 -403 -2 -3 -11 31 -20 73 -23 114
-52 184 -113 269 -30 41 -54 81 -54 88 0 33 147 206 175 206 7 0 20 -11 29
-25z m-1488 -137 c106 -110 118 -145 75 -213 -44 -69 -75 -197 -84 -340 -2
-37 -3 -38 -14 -18 -43 74 -92 391 -78 503 7 59 29 120 42 120 5 0 31 -24 59
-52z m1220 -96 c129 -66 207 -234 207 -447 0 -206 -76 -338 -225 -391 -173
-61 -372 85 -419 307 -30 138 10 329 89 434 82 109 239 153 348 97z m-717 -16
c88 -45 157 -146 182 -266 7 -33 9 -102 6 -175 -9 -201 -57 -301 -177 -363
-61 -32 -70 -34 -145 -30 -203 9 -315 158 -318 422 -3 313 229 524 452 412z
m1314 -943 c8 -10 17 -31 19 -48 2 -23 9 -31 28 -33 57 -8 78 -60 36 -87 -20
-13 -30 -14 -69 -3 -42 11 -47 10 -64 -9 -10 -12 -40 -40 -67 -63 -38 -32 -51
-38 -62 -29 -25 20 -15 47 31 85 25 20 45 41 45 48 0 6 -10 30 -22 53 -19 36
-20 43 -7 59 17 20 66 43 95 44 11 0 28 -8 37 -17z m-377 -94 c32 -6 79 -19
104 -29 25 -10 58 -21 74 -25 l29 -6 -32 -33 c-35 -36 -41 -79 -14 -108 24
-27 56 -22 107 17 26 19 49 35 52 35 8 0 44 -83 44 -102 0 -13 -8 -18 -25 -18
-14 0 -28 -7 -32 -16 -5 -15 -7 -15 -15 0 -7 12 -24 15 -71 15 -65 -1 -131 6
-147 16 -6 3 -10 1 -10 -5 0 -6 -7 -21 -16 -35 l-15 -24 -37 25 c-26 18 -44
23 -62 19 -37 -9 -80 -55 -80 -84 0 -39 -37 -53 -81 -29 -23 12 -55 18 -101
18 l-68 0 6 48 c23 183 110 292 257 322 60 11 67 11 133 -1z m-1201 -29 c4 -6
-6 -26 -22 -45 -15 -18 -35 -44 -44 -56 l-16 -23 -26 29 c-34 39 -34 45 5 77
34 28 91 38 103 18z m-285 -55 c0 -8 5 -15 10 -15 6 0 10 5 10 10 0 19 35 10
85 -22 l50 -32 -46 -7 c-85 -13 -112 -38 -111 -104 1 -25 -2 -45 -6 -46 -4 0
-43 -5 -87 -10 -207 -24 -203 -24 -216 5 -11 23 -9 33 9 71 12 25 26 45 32 45
5 0 10 8 10 18 0 10 5 23 12 30 16 16 59 16 55 0 -1 -7 4 -13 12 -13 8 0 16 6
19 13 2 6 -3 12 -12 12 -31 0 -25 20 11 39 48 26 163 30 163 6z m198 -138 c4
-35 38 -52 117 -62 81 -9 115 4 115 45 0 27 3 30 33 30 97 -1 337 -50 337 -69
0 -18 -52 -22 -305 -28 -292 -6 -431 4 -452 33 -18 25 -16 41 7 64 17 17 31
20 83 18 59 -3 62 -4 65 -31z m861 -1 c9 -6 10 -21 6 -50 -4 -22 -9 -42 -10
-44 -2 -2 -38 8 -81 22 -43 14 -91 26 -106 26 -66 0 2 55 77 62 35 4 96 -5
114 -16z m605 -101 c12 -18 14 -36 10 -65 l-7 -40 -118 0 -119 0 0 28 c0 37
17 52 58 52 28 0 35 -5 48 -35 8 -19 19 -35 24 -35 13 0 13 36 -1 61 -27 52
73 84 105 34z m86 11 c0 -18 -31 -29 -44 -16 -8 8 -7 14 4 20 22 14 40 12 40
-4z m111 -2 c7 -9 16 -38 19 -65 l6 -49 -87 0 c-90 0 -105 7 -88 42 5 9 24 21
42 27 19 7 45 23 57 36 28 29 33 30 51 9z m-1022 -42 c10 -32 10 -47 2 -55
-12 -12 -730 -24 -775 -13 -23 6 -26 11 -26 54 l0 47 318 -3 c174 -2 344 1
377 6 84 14 88 12 104 -36z m587 21 c-14 -14 -29 -37 -32 -49 -8 -31 -24 -20
-24 16 0 31 30 60 64 60 17 0 16 -3 -8 -27z m-1503 -79 l77 6 0 -29 c0 -28 -2
-29 -30 -21 -16 5 -34 12 -41 15 -6 4 -28 -1 -50 -11 -30 -13 -42 -15 -51 -6
-17 17 -43 15 -90 -8 l-40 -19 -19 22 c-30 36 -20 51 36 57 28 3 68 1 90 -3
22 -5 75 -6 118 -3z m1325 -4 c42 -26 48 -44 42 -122 -5 -61 -6 -63 -42 -80
-61 -29 -228 -41 -315 -22 -51 10 -12 58 80 98 32 15 63 26 70 26 33 0 87 22
87 36 0 31 -147 -6 -207 -52 -58 -44 -89 -7 -35 42 83 78 250 116 320 74z
m-400 -47 c9 -29 -98 -48 -378 -67 -292 -21 -397 -23 -410 -10 -6 6 -13 26
-16 45 l-6 34 244 -3 c133 -2 299 1 368 6 154 12 192 11 198 -5z m521 -25 c0
-24 -4 -51 -8 -61 -6 -16 -9 -17 -19 -4 -21 25 -10 107 14 107 10 0 14 -12 13
-42z m143 36 c3 -3 4 -14 1 -24 -5 -18 -6 -19 -29 -2 -13 9 -24 20 -24 25 0 8
44 10 52 1z m428 -34 c0 -18 -7 -20 -88 -20 -49 0 -137 -3 -195 -7 -104 -6
-107 -5 -107 15 0 25 19 28 238 30 146 2 152 1 152 -18z m-2135 -10 c8 -13 41
-13 82 2 27 10 38 10 53 0 11 -7 31 -12 45 -12 17 0 25 -6 25 -16 0 -15 -11
-16 -102 -10 -57 4 -118 9 -137 13 l-34 6 24 13 c29 16 36 17 44 4z m1062 -89
c-10 -89 -70 -106 -377 -106 -256 1 -386 16 -413 47 -10 12 -17 31 -15 42 3
20 11 21 173 28 182 8 504 34 570 47 55 10 68 -2 62 -58z m623 58 c0 -5 4 -8
9 -4 5 3 12 1 16 -5 3 -5 15 -10 26 -10 25 0 27 -40 2 -41 -10 -1 -30 -3 -45
-4 -24 -3 -26 0 -30 36 -2 27 0 39 9 39 7 0 13 -5 13 -11z m180 -34 c0 -16 -6
-25 -15 -25 -28 0 -18 40 13 49 1 1 2 -10 2 -24z m173 19 c14 -15 -8 -34 -39
-34 -25 0 -34 4 -35 18 -1 16 -2 16 -6 0 -2 -10 -8 -18 -11 -19 -4 0 -22 -2
-39 -5 -30 -3 -33 -1 -33 21 0 25 2 25 78 25 43 0 81 -3 85 -6z m-1952 -21
c114 -5 129 -8 129 -24 0 -9 3 -24 6 -33 5 -14 -10 -16 -133 -16 -126 0 -142
2 -158 20 -22 24 -13 75 11 66 9 -3 74 -9 145 -13z m1699 -3 c0 -11 -4 -20
-10 -20 -5 0 -10 9 -10 20 0 11 5 20 10 20 6 0 10 -9 10 -20z m40 0 c0 -11 -7
-20 -15 -20 -8 0 -15 9 -15 20 0 11 7 20 15 20 8 0 15 -9 15 -20z"/>
<path d="M1579 1711 c-49 -16 -79 -43 -106 -99 -25 -52 -28 -67 -28 -167 0
-98 3 -116 27 -167 47 -102 139 -143 231 -104 45 19 93 73 112 125 17 50 20
187 5 243 -13 46 -66 125 -101 151 -30 22 -101 31 -140 18z"/>
<path d="M836 1696 c-52 -20 -100 -68 -127 -130 -19 -41 -23 -69 -23 -142 0
-80 3 -97 29 -150 41 -80 104 -124 180 -124 100 0 174 83 195 217 34 215 -98
386 -254 329z"/>
<path d="M1956 768 c-8 -31 -8 -38 3 -38 12 0 22 43 12 53 -5 5 -11 -2 -15
-15z"/>
<path d="M1840 709 c0 -5 5 -7 10 -4 6 3 10 8 10 11 0 2 -4 4 -10 4 -5 0 -10
-5 -10 -11z"/>
<path d="M1775 610 c3 -5 8 -10 11 -10 2 0 4 5 4 10 0 6 -5 10 -11 10 -5 0 -7
-4 -4 -10z"/>
<path d="M1910 560 c0 -5 5 -10 10 -10 6 0 10 5 10 10 0 6 -4 10 -10 10 -5 0
-10 -4 -10 -10z"/>
<path d="M346 691 c-4 -7 -5 -15 -2 -18 9 -9 19 4 14 18 -4 11 -6 11 -12 0z"/>
<path d="M540 670 c0 -5 4 -10 9 -10 6 0 13 5 16 10 3 6 -1 10 -9 10 -9 0 -16
-4 -16 -10z"/>
<path d="M465 659 c-10 -15 3 -25 16 -12 7 7 7 13 1 17 -6 3 -14 1 -17 -5z"/>
<path d="M397 654 c-13 -13 -7 -24 14 -24 11 0 19 5 17 12 -5 14 -22 21 -31
12z"/>
<path d="M233 615 c-3 -9 -3 -18 0 -21 9 -9 27 6 27 22 0 19 -19 18 -27 -1z"/>
<path d="M330 596 c0 -9 7 -16 16 -16 17 0 14 22 -4 28 -7 2 -12 -3 -12 -12z"/>
<path d="M407 563 c-14 -13 -7 -31 11 -29 9 2 16 6 15 9 -2 4 -3 12 -3 17 0
11 -13 13 -23 3z"/>
<path d="M195 519 c-10 -15 3 -25 16 -12 7 7 7 13 1 17 -6 3 -14 1 -17 -5z"/>
</g>
</svg>
